# ProBuilder 4.5.0
# https://unity3d.com/unity/features/worldbuilding/probuilder
# 05.06.2021 14:20:14

mtllib ./Arch60.mtl
o Arch60

g Arch60
v -1.459135 -0.00128284 -7.123199E-08
v -1.455579 0.1005616 -7.123199E-08
v -1.459135 -0.00128284 0.09999993
v -1.455579 0.1005616 0.09999993
v -0.4270512 0.02792348 -1.312097E-07
v -0.4280986 -0.002072022 -2.539947E-07
v -0.4270512 0.02792373 0.09999999
v -0.4280986 -0.00207201 0.09999993
v -0.4282509 -0.001313719 0.0999999
v -0.4282509 -0.001313731 -1.628701E-07
v -1.444927 0.2019099 -7.123199E-08
v -1.444927 0.2019099 0.09999993
v -0.4249505 0.05856161 -7.123199E-08
v -0.4272035 0.02868177 -1.592944E-07
v -0.4249505 0.05856161 0.09999993
v -0.4272035 0.02868184 0.09999996
v -1.427231 0.3022682 -7.123199E-08
v -1.427231 0.3022682 0.09999993
v -0.4197386 0.0881192 -7.123199E-08
v -0.4197386 0.0881192 0.09999993
v -1.402577 0.4011477 -7.123199E-08
v -1.402577 0.4011477 0.09999993
v -0.4124777 0.1172412 -7.123199E-08
v -0.4124777 0.1172412 0.09999993
v -1.371086 0.4980665 -7.123199E-08
v -1.371086 0.4980665 0.09999993
v -0.403203 0.1457858 -7.123199E-08
v -0.403203 0.1457858 0.09999993
v -1.332911 0.5925527 -7.123199E-08
v -1.332911 0.5925527 0.09999993
v -0.3919598 0.1736139 -7.123199E-08
v -0.3919598 0.1736139 0.09999993
v -1.288239 0.6841456 -7.123199E-08
v -1.288239 0.6841456 0.09999993
v -0.3788026 0.20059 -7.123199E-08
v -0.3788026 0.20059 0.09999993
v -1.237285 0.7723993 -7.123199E-08
v -1.237285 0.7723993 0.09999993
v -0.3637958 0.2265825 -7.123199E-08
v -0.3637958 0.2265825 0.09999993
v -1.1803 0.8568836 -7.123199E-08
v -1.1803 0.8568836 0.09999993
v -0.3470125 0.2514648 -7.123199E-08
v -0.3470125 0.2514648 0.09999993
v -1.11756 0.937187 -7.123199E-08
v -1.11756 0.937187 0.09999993
v -0.3285342 0.2751158 -7.123199E-08
v -0.3285342 0.2751158 0.09999993
v -1.049371 1.012918 -7.123199E-08
v -1.049371 1.012918 0.09999993
v -0.3084513 0.2974203 -7.123199E-08
v -0.3084513 0.2974203 0.09999993
v -0.9760658 1.083709 -7.123199E-08
v -0.9760658 1.083709 0.09999993
v -0.2868613 0.3182695 -7.123199E-08
v -0.2868613 0.3182695 0.09999993
v -0.898001 1.149213 -7.123199E-08
v -0.898001 1.149213 0.09999993
v -0.2638696 0.3375618 -7.123199E-08
v -0.2638696 0.3375618 0.09999993
v -0.8155568 1.209112 -7.123199E-08
v -0.8155568 1.209112 0.09999993
v -0.2419551 0.3589919 -3.285346E-07
v -0.2419551 0.358992 0.09999979
v -0.729135 1.263114 -7.123199E-08
v -0.729135 1.263114 0.09999993
v -0.2168504 0.3720044 -0.003524722
v -0.2423033 0.3560997 -0.003524903
v -0.2168504 0.3720049 0.0964757
v -0.2423033 0.3561 0.0964757
v -0.2165021 0.3748968 0.0999998
v -0.2165021 0.3748967 -3.266386E-07

vt -7.123199E-08 -0.05220519
vt -7.123199E-08 0.04970134
vt 0.09999993 -0.05220519
vt 0.09999993 0.04970134
vt 9.399114E-08 0.01300393
vt 2.166849E-07 -0.01700986
vt -0.1 0.01300418
vt -0.09999997 -0.01700984
vt -1.459135 0.09999993
vt -0.4282509 0.0999999
vt -1.459135 -7.123199E-08
vt -0.4282509 -1.628701E-07
vt 7.123199E-08 0.0264432
vt 1.592944E-07 -0.003521459
vt -0.09999993 0.0264432
vt -0.09999996 -0.003521389
vt 7.123199E-08 0.01389322
vt 7.123199E-08 -0.01612035
vt -0.09999993 0.01389322
vt -0.09999993 -0.01612035
vt -7.123199E-08 -0.05198894
vt 0.09999993 -0.05198894
vt 7.123199E-08 0.01405373
vt 7.123199E-08 -0.01595983
vt -0.09999993 0.01405373
vt -0.09999993 -0.01595983
vt -7.123199E-08 0.05008785
vt 0.09999993 0.05008785
vt -7.123199E-08 -0.05143233
vt 0.09999993 -0.05143233
vt 7.123199E-08 0.01452744
vt 7.123199E-08 -0.01548617
vt -0.09999993 0.01452744
vt -0.09999993 -0.01548617
vt -7.123199E-08 0.05057877
vt 0.09999993 0.05057877
vt 0.05122231 -7.123199E-08
vt -0.05068432 -7.123199E-08
vt 0.05122231 0.09999993
vt -0.05068432 0.09999993
vt 0.01473736 -7.123199E-08
vt -0.01527623 -7.123199E-08
vt 0.01473736 0.09999993
vt -0.01527623 0.09999993
vt 0.07800398 -1.470658E-07
vt 0.04735282 1.102369E-07
vt 0.07800402 0.09999997
vt 0.04735282 0.1000001
vt 0.05089971 -7.123199E-08
vt -0.05100693 -7.123199E-08
vt 0.05089971 0.09999993
vt -0.05100693 0.09999993
vt 0.01323122 -0.003522764
vt -0.01678233 -0.003522945
vt 0.0132315 0.09647766
vt -0.0167822 0.09647766
vt -0.09999965 0.4329213
vt -0.09999943 1.458457
vt 4.755949E-07 0.4329211
vt 5.728864E-07 1.458457
vt -1.459135 -0.00128284
vt -1.455579 0.1005616
vt -0.4282509 -0.001313719
vt -0.4272035 0.02868184
vt 1.455579 0.1005616
vt 1.459135 -0.00128284
vt 0.4272035 0.02868177
vt 0.4282509 -0.001313731
vt -1.444927 0.2019099
vt -0.4249505 0.05856161
vt 1.444927 0.2019099
vt 0.4249505 0.05856161
vt -1.427231 0.3022682
vt -0.4197386 0.0881192
vt 1.427231 0.3022682
vt 0.4197386 0.0881192
vt -1.402577 0.4011477
vt -0.4124777 0.1172412
vt 1.402577 0.4011477
vt 0.4124777 0.1172412
vt -1.371086 0.4980665
vt -0.403203 0.1457858
vt 1.371086 0.4980665
vt 0.403203 0.1457858
vt -1.332911 0.5925527
vt -0.3919598 0.1736139
vt 1.332911 0.5925527
vt 0.3919598 0.1736139
vt -1.288239 0.6841456
vt -0.3788026 0.20059
vt 1.288239 0.6841456
vt 0.3788026 0.20059
vt -1.237285 0.7723993
vt -0.3637958 0.2265825
vt 1.237285 0.7723993
vt 0.3637958 0.2265825
vt -1.1803 0.8568836
vt -0.3470125 0.2514648
vt 1.1803 0.8568836
vt 0.3470125 0.2514648
vt -1.11756 0.937187
vt -0.3285342 0.2751158
vt 1.11756 0.937187
vt 0.3285342 0.2751158
vt -1.049371 1.012918
vt -0.3084513 0.2974203
vt 1.049371 1.012918
vt 0.3084513 0.2974203
vt -0.9760658 1.083709
vt -0.2868613 0.3182695
vt 0.9760658 1.083709
vt 0.2868613 0.3182695
vt -0.898001 1.149213
vt -0.2638696 0.3375618
vt 0.898001 1.149213
vt 0.2638696 0.3375618
vt -0.8155568 1.209112
vt -0.2419551 0.358992
vt 0.8155568 1.209112
vt 0.2419551 0.3589919
vt -0.729135 1.263114
vt -0.2165021 0.3748968
vt 0.729135 1.263114
vt 0.2165021 0.3748967
vt -0.01506065 0.2341546
vt 0.01495296 0.2341546
vt -0.01323266 0.2299633
vt 0.01678089 0.2299632
vt -0.09999983 0.3463265
vt 2.955622E-07 0.3463264
vt -0.09647573 0.3434137
vt 0.003524691 0.3434131
vt -3.111714E-07 0.3274963
vt 0.09999981 0.3274964
vt -0.003524885 0.3245832
vt 0.09647571 0.3245835
vt -0.01495225 0.3182403
vt 0.01506139 0.3182403
vt -0.01678009 0.3140494
vt 0.01323361 0.3140495
vt 0 0
vt -0.0999999 0.1122874
vt 2.200597E-07 0.1122873
vt -0.09999993 0.1115142
vt 1.919534E-07 0.1115139
vt -1.732872E-07 0.08306692
vt 0.0999999 0.08306693
vt -2.644081E-07 0.08229347
vt 0.09999993 0.08229349

vn -0.9993908 0.03489953 0
vn 0.999391 -0.03489639 8.709934E-08
vn -2.995383E-05 -1 0
vn -0.9945219 0.104529 0
vn 0.9971691 -0.07519142 0
vn -0.9848079 0.1736472 0
vn 0.9848076 -0.1736491 0
vn -0.9702957 0.241922 0
vn 0.9702959 -0.2419212 0
vn -0.9510562 0.3090178 0
vn 0.9510563 -0.3090176 0
vn -0.9271839 0.3746066 0
vn 0.9271845 -0.374605 0
vn -0.8987942 0.4383709 0
vn 0.8987936 -0.4383722 0
vn -0.8660255 0.4999999 0
vn 0.8660254 -0.4999999 0
vn -0.8290375 0.559193 0
vn 0.8290377 -0.5591927 0
vn -0.7880105 0.6156618 0
vn 0.7880094 -0.6156632 0
vn -0.7431449 0.6691306 0
vn 0.7431463 -0.669129 0
vn -0.6946584 0.7193398 0
vn 0.6946576 -0.7193406 0
vn -0.6427872 0.7660448 0
vn 0.6427882 -0.7660439 0
vn -0.587786 0.8090165 0
vn 0.6991612 -0.7149641 4.261513E-07
vn -0.5299192 0.8480482 0
vn 0.5299162 -0.84805 4.549276E-06
vn 0.8661013 0.4998685 -5.95889E-07
vn 2.168208E-08 -7.571557E-10 1
vn -8.542402E-08 2.983075E-09 -1
vn -0.445606 0.713119 -0.5411994
vn 0.9928287 -0.1195456 1.425093E-07
vn -0.9928302 0.1195334 -7.124736E-08
vn 0.4456106 -0.713124 0.5411888
vn 0 0 0
vn 0.9803994 0.1970203 -1.394518E-07
vn 0.9804039 0.196998 -3.155457E-07
vn -0.9804084 -0.1969755 2.384818E-08

usemtl ProBuilderDefault
f 3/3/1 4/4/1 2/2/1 1/1/1
f 7/7/2 8/8/2 6/6/2 5/5/2
f 1/11/3 10/12/3 9/10/3 3/9/3
f 4/3/4 12/4/4 11/2/4 2/1/4
f 15/15/5 16/16/5 14/14/5 13/13/5
f 12/3/6 18/4/6 17/2/6 11/1/6
f 20/19/7 15/20/7 13/18/7 19/17/7
f 18/22/8 22/4/8 21/2/8 17/21/8
f 24/19/9 20/20/9 19/18/9 23/17/9
f 22/22/10 26/4/10 25/2/10 21/21/10
f 28/25/11 24/26/11 23/24/11 27/23/11
f 26/22/12 30/28/12 29/27/12 25/21/12
f 32/25/13 28/26/13 27/24/13 31/23/13
f 30/22/14 34/28/14 33/27/14 29/21/14
f 36/25/15 32/26/15 31/24/15 35/23/15
f 34/22/16 38/28/16 37/27/16 33/21/16
f 40/25/17 36/26/17 35/24/17 39/23/17
f 38/22/18 42/28/18 41/27/18 37/21/18
f 44/25/19 40/26/19 39/24/19 43/23/19
f 42/30/20 46/28/20 45/27/20 41/29/20
f 48/33/21 44/34/21 43/32/21 47/31/21
f 46/30/22 50/36/22 49/35/22 45/29/22
f 52/33/23 48/34/23 47/32/23 51/31/23
f 50/39/24 54/40/24 53/38/24 49/37/24
f 56/43/25 52/44/25 51/42/25 55/41/25
f 54/39/26 58/40/26 57/38/26 53/37/26
f 60/43/27 56/44/27 55/42/27 59/41/27
f 58/39/28 62/40/28 61/38/28 57/37/28
f 64/47/29 60/48/29 59/46/29 63/45/29
f 62/51/30 66/52/30 65/50/30 61/49/30
f 69/55/31 70/56/31 68/54/31 67/53/31
f 72/59/32 65/60/32 66/58/32 71/57/32
f 9/63/33 16/64/33 4/62/33 3/61/33
f 14/67/34 10/68/34 1/66/34 2/65/34
f 16/64/33 15/70/33 12/69/33 4/62/33
f 13/72/34 14/67/34 2/65/34 11/71/34
f 15/70/33 20/74/33 18/73/33 12/69/33
f 19/76/34 13/72/34 11/71/34 17/75/34
f 20/74/33 24/78/33 22/77/33 18/73/33
f 23/80/34 19/76/34 17/75/34 21/79/34
f 24/78/33 28/82/33 26/81/33 22/77/33
f 27/84/34 23/80/34 21/79/34 25/83/34
f 28/82/33 32/86/33 30/85/33 26/81/33
f 31/88/34 27/84/34 25/83/34 29/87/34
f 32/86/33 36/90/33 34/89/33 30/85/33
f 35/92/34 31/88/34 29/87/34 33/91/34
f 36/90/33 40/94/33 38/93/33 34/89/33
f 39/96/34 35/92/34 33/91/34 37/95/34
f 40/94/33 44/98/33 42/97/33 38/93/33
f 43/100/34 39/96/34 37/95/34 41/99/34
f 44/98/33 48/102/33 46/101/33 42/97/33
f 47/104/34 43/100/34 41/99/34 45/103/34
f 48/102/33 52/106/33 50/105/33 46/101/33
f 51/108/34 47/104/34 45/103/34 49/107/34
f 52/106/33 56/110/33 54/109/33 50/105/33
f 55/112/34 51/108/34 49/107/34 53/111/34
f 56/110/33 60/114/33 58/113/33 54/109/33
f 59/116/34 55/112/34 53/111/34 57/115/34
f 60/114/33 64/118/33 62/117/33 58/113/33
f 63/120/34 59/116/34 57/115/34 61/119/34
f 64/118/33 71/122/33 66/121/33 62/117/33
f 72/124/34 63/120/34 61/119/34 65/123/34
f 67/127/35 68/128/35 63/126/35 72/125/35
f 69/131/36 67/132/36 72/130/36 71/129/36
f 68/135/37 70/136/37 64/134/37 63/133/37
f 70/139/38 69/140/38 71/138/38 64/137/38
f 5/141/39 6/141/39 10/141/39 14/141/39
f 7/144/41 5/145/41 14/143/41 16/142/40
f 6/148/42 8/149/42 9/147/42 10/146/42
f 8/141/39 7/141/39 16/141/39 9/141/39

