# ProBuilder 4.5.0
# https://unity3d.com/unity/features/worldbuilding/probuilder
# 05.06.2021 14:20:14

mtllib ./Arch90.mtl
o Arch90

g Arch90
v -1.450348 -0.02336968 2.980233E-09
v -1.44235 0.1401349 4.497316E-09
v -1.450348 -0.02336968 0.1
v -1.44235 0.1401349 0.1
v -0.4179927 0.0324706 4.497316E-09
v -0.4203483 -0.02336968 2.980233E-09
v -0.4179927 0.0324706 0.1
v -0.4203483 -0.02336968 0.1
v -1.418444 0.2910744 4.497316E-09
v -1.418444 0.2910744 0.1
v -0.4109518 0.0769254 4.497316E-09
v -0.4109518 0.0769254 0.1
v -1.378891 0.4386882 4.497316E-09
v -1.378891 0.4386882 0.1
v -0.3993026 0.1204007 4.497316E-09
v -0.3993026 0.1204007 0.1
v -1.324125 0.5813589 4.497316E-09
v -1.324125 0.5813589 0.1
v -0.3831729 0.1624201 4.497316E-09
v -0.3831729 0.1624201 0.1
v -1.254745 0.7175233 4.497316E-09
v -1.254745 0.7175233 0.1
v -0.3627392 0.2025234 4.497316E-09
v -0.3627392 0.2025234 0.1
v -1.171513 0.8456898 4.497316E-09
v -1.171513 0.8456898 0.1
v -0.3382256 0.240271 4.497316E-09
v -0.3382256 0.240271 0.1
v -1.07534 0.9644541 4.497316E-09
v -1.07534 0.9644541 0.1
v -0.3099006 0.2752496 4.497316E-09
v -0.3099006 0.2752496 0.1
v -0.967279 1.072515 4.497316E-09
v -0.967279 1.072515 0.1
v -0.2780744 0.3070757 4.497316E-09
v -0.2780744 0.3070757 0.1
v -0.8485148 1.168688 4.497316E-09
v -0.8485148 1.168688 0.1
v -0.243096 0.3354007 4.497316E-09
v -0.243096 0.3354007 0.1
v -0.7203482 1.25192 4.497316E-09
v -0.7203482 1.25192 0.1
v -0.2053483 0.3599143 4.497316E-09
v -0.2053483 0.3599143 0.1
v -0.5841837 1.3213 4.497316E-09
v -0.5841837 1.3213 0.1
v -0.165245 0.380348 4.497316E-09
v -0.165245 0.380348 0.1
v -0.441513 1.376066 4.497316E-09
v -0.441513 1.376066 0.1
v -0.1232256 0.3964777 4.497316E-09
v -0.1232256 0.3964777 0.1
v -0.2938992 1.415619 4.497316E-09
v -0.2938992 1.415619 0.1
v -0.07975033 0.4081269 4.497316E-09
v -0.07975033 0.4081269 0.1
v -0.1429597 1.439525 4.497316E-09
v -0.1429597 1.439525 0.1
v -0.03529552 0.4151678 4.497316E-09
v -0.03529552 0.4151678 0.1
v 0.01021673 1.447523 1.093743E-08
v 0.01021673 1.447523 0.1
v 0.01021639 0.4175233 1.066922E-08
v 0.01021639 0.4175233 0.1

vt 2.980233E-09 -0.09420121
vt 4.497316E-09 0.06949887
vt 0.1 -0.09420121
vt 0.1 0.06949887
vt -4.497316E-09 0.01482496
vt -2.980233E-09 -0.04106498
vt -0.1 0.01482496
vt -0.1 -0.04106498
vt -1.450348 0.1
vt -0.4203483 0.1
vt -1.450348 2.980233E-09
vt -0.4203483 2.980233E-09
vt 4.497316E-09 -0.08722369
vt 4.497316E-09 0.06559731
vt 0.1 -0.08722369
vt 0.1 0.06559731
vt -4.497316E-09 0.01169103
vt -4.497316E-09 -0.03331791
vt -0.1 0.01169103
vt -0.1 -0.03331791
vt 4.497316E-09 -0.08596449
vt 4.497316E-09 0.06685654
vt 0.1 -0.08596449
vt 0.1 0.06685654
vt -4.497316E-09 0.01295133
vt -4.497316E-09 -0.03205759
vt -0.1 0.01295133
vt -0.1 -0.03205759
vt 4.497316E-09 -0.08459968
vt 4.497316E-09 0.06822135
vt 0.1 -0.08459968
vt 0.1 0.06822135
vt -4.497316E-09 0.01431556
vt -4.497316E-09 -0.03069335
vt -0.1 0.01431556
vt -0.1 -0.03069335
vt 4.497316E-09 -0.08314515
vt 4.497316E-09 0.06967574
vt 0.1 -0.08314515
vt 0.1 0.06967574
vt -4.497316E-09 0.0157692
vt -4.497316E-09 -0.02923975
vt -0.1 0.0157692
vt -0.1 -0.02923975
vt 4.497316E-09 -0.08161782
vt 4.497316E-09 0.07120315
vt 0.1 -0.08161782
vt 0.1 0.07120315
vt -4.497316E-09 0.01729741
vt -4.497316E-09 -0.0277115
vt -0.1 0.01729741
vt -0.1 -0.0277115
vt 4.497316E-09 -0.0800326
vt 4.497316E-09 0.07278848
vt 0.1 -0.0800326
vt 0.1 0.07278848
vt -4.497316E-09 0.01888221
vt -4.497316E-09 -0.02612678
vt -0.1 0.01888221
vt -0.1 -0.02612678
vt 0.07840712 4.497316E-09
vt -0.0744139 4.497316E-09
vt 0.07840712 0.1
vt -0.0744139 0.1
vt 0.0205068 4.497316E-09
vt -0.02450214 4.497316E-09
vt 0.0205068 0.1
vt -0.02450214 0.1
vt 0.07676172 4.497316E-09
vt -0.07605918 4.497316E-09
vt 0.07676172 0.1
vt -0.07605918 0.1
vt 0.02215398 4.497316E-09
vt -0.02285485 4.497316E-09
vt 0.02215398 0.1
vt -0.02285485 0.1
vt 0.07511152 4.497316E-09
vt -0.07770956 4.497316E-09
vt 0.07511152 0.1
vt -0.07770956 0.1
vt 0.02380354 4.497316E-09
vt -0.02120546 4.497316E-09
vt 0.02380354 0.1
vt -0.02120546 0.1
vt 0.07347474 4.497316E-09
vt -0.07934632 4.497316E-09
vt 0.07347474 0.1
vt -0.07934632 0.1
vt 0.0254398 4.497316E-09
vt -0.0195692 4.497316E-09
vt 0.0254398 0.1
vt -0.0195692 0.1
vt 0.07187183 4.497316E-09
vt -0.08094916 4.497316E-09
vt 0.07187183 0.1
vt -0.08094916 0.1
vt 0.02704422 4.497316E-09
vt -0.01796463 4.497316E-09
vt 0.02704422 0.1
vt -0.01796463 0.1
vt 0.07031617 4.497316E-09
vt -0.08250486 4.497316E-09
vt 0.07031617 0.1
vt -0.08250486 0.1
vt 0.0285981 4.497316E-09
vt -0.01641081 4.497316E-09
vt 0.0285981 0.1
vt -0.01641081 0.1
vt 0.06882916 4.497316E-09
vt -0.08399179 4.497316E-09
vt 0.06882916 0.1
vt -0.08399179 0.1
vt 0.03008556 4.497316E-09
vt -0.01492339 4.497316E-09
vt 0.03008556 0.1
vt -0.01492339 0.1
vt 0.06770383 4.497316E-09
vt -0.08568131 1.093743E-08
vt 0.06770383 0.1
vt -0.0856813 0.1
vt 0.03178266 1.066922E-08
vt -0.01379016 4.497316E-09
vt 0.03178266 0.1
vt -0.01379016 0.1
vt -0.1 0.4175233
vt -0.1 1.447523
vt -1.066922E-08 0.4175233
vt -1.093743E-08 1.447523
vt -1.450348 -0.02336968
vt -1.44235 0.1401349
vt -0.4203483 -0.02336968
vt -0.4179927 0.0324706
vt 1.44235 0.1401349
vt 1.450348 -0.02336968
vt 0.4179927 0.0324706
vt 0.4203483 -0.02336968
vt -1.418444 0.2910744
vt -0.4109518 0.0769254
vt 1.418444 0.2910744
vt 0.4109518 0.0769254
vt -1.378891 0.4386882
vt -0.3993026 0.1204007
vt 1.378891 0.4386882
vt 0.3993026 0.1204007
vt -1.324125 0.5813589
vt -0.3831729 0.1624201
vt 1.324125 0.5813589
vt 0.3831729 0.1624201
vt -1.254745 0.7175233
vt -0.3627392 0.2025234
vt 1.254745 0.7175233
vt 0.3627392 0.2025234
vt -1.171513 0.8456898
vt -0.3382256 0.240271
vt 1.171513 0.8456898
vt 0.3382256 0.240271
vt -1.07534 0.9644541
vt -0.3099006 0.2752496
vt 1.07534 0.9644541
vt 0.3099006 0.2752496
vt -0.967279 1.072515
vt -0.2780744 0.3070757
vt 0.967279 1.072515
vt 0.2780744 0.3070757
vt -0.8485148 1.168688
vt -0.243096 0.3354007
vt 0.8485148 1.168688
vt 0.243096 0.3354007
vt -0.7203482 1.25192
vt -0.2053483 0.3599143
vt 0.7203482 1.25192
vt 0.2053483 0.3599143
vt -0.5841837 1.3213
vt -0.165245 0.380348
vt 0.5841837 1.3213
vt 0.165245 0.380348
vt -0.441513 1.376066
vt -0.1232256 0.3964777
vt 0.441513 1.376066
vt 0.1232256 0.3964777
vt -0.2938992 1.415619
vt -0.07975033 0.4081269
vt 0.2938992 1.415619
vt 0.07975033 0.4081269
vt -0.1429597 1.439525
vt -0.03529552 0.4151678
vt 0.1429597 1.439525
vt 0.03529552 0.4151678
vt 0.01021674 1.447523
vt 0.0102164 0.4175233
vt -0.01021673 1.447523
vt -0.01021639 0.4175233

vn -0.9988058 0.04885685 0
vn 0.9991115 -0.04214615 0
vn 0 -1 0
vn -0.9876884 0.1564345 0
vn 0.9876882 -0.1564351 0
vn -0.9659258 0.2588194 0
vn 0.9659261 -0.2588183 0
vn -0.9335804 0.3583681 0
vn 0.9335806 -0.3583675 0
vn -0.8910066 0.4539903 0
vn 0.8910062 -0.4539911 0
vn -0.8386705 0.5446392 0
vn 0.8386707 -0.5446389 0
vn -0.777146 0.6293203 0
vn 0.7771457 -0.6293207 0
vn -0.7071072 0.7071064 0
vn 0.7071065 -0.7071071 0
vn -0.6293203 0.7771461 0
vn 0.6293215 -0.7771451 0
vn -0.5446389 0.8386707 0
vn 0.5446385 -0.838671 0
vn -0.4539907 0.8910065 0
vn 0.45399 -0.8910068 0
vn -0.3583674 0.9335806 0
vn 0.3583687 -0.9335802 0
vn -0.2588194 0.9659258 0
vn 0.258819 -0.9659258 0
vn -0.1564345 0.9876884 0
vn 0.1564344 -0.9876883 0
vn -0.05214319 0.9986396 0
vn 0.05168555 -0.9986634 0
vn 1 -3.300318E-07 0
vn 0 0 1
vn 9.702253E-10 9.231077E-09 -1

usemtl ProBuilderDefault
f 3/3/1 4/4/1 2/2/1 1/1/1
f 7/7/2 8/8/2 6/6/2 5/5/2
f 1/11/3 6/12/3 8/10/3 3/9/3
f 4/15/4 10/16/4 9/14/4 2/13/4
f 12/19/5 7/20/5 5/18/5 11/17/5
f 10/23/6 14/24/6 13/22/6 9/21/6
f 16/27/7 12/28/7 11/26/7 15/25/7
f 14/31/8 18/32/8 17/30/8 13/29/8
f 20/35/9 16/36/9 15/34/9 19/33/9
f 18/39/10 22/40/10 21/38/10 17/37/10
f 24/43/11 20/44/11 19/42/11 23/41/11
f 22/47/12 26/48/12 25/46/12 21/45/12
f 28/51/13 24/52/13 23/50/13 27/49/13
f 26/55/14 30/56/14 29/54/14 25/53/14
f 32/59/15 28/60/15 27/58/15 31/57/15
f 30/63/16 34/64/16 33/62/16 29/61/16
f 36/67/17 32/68/17 31/66/17 35/65/17
f 34/71/18 38/72/18 37/70/18 33/69/18
f 40/75/19 36/76/19 35/74/19 39/73/19
f 38/79/20 42/80/20 41/78/20 37/77/20
f 44/83/21 40/84/21 39/82/21 43/81/21
f 42/87/22 46/88/22 45/86/22 41/85/22
f 48/91/23 44/92/23 43/90/23 47/89/23
f 46/95/24 50/96/24 49/94/24 45/93/24
f 52/99/25 48/100/25 47/98/25 51/97/25
f 50/103/26 54/104/26 53/102/26 49/101/26
f 56/107/27 52/108/27 51/106/27 55/105/27
f 54/111/28 58/112/28 57/110/28 53/109/28
f 60/115/29 56/116/29 55/114/29 59/113/29
f 58/119/30 62/120/30 61/118/30 57/117/30
f 64/123/31 60/124/31 59/122/31 63/121/31
f 63/127/32 61/128/32 62/126/32 64/125/32
f 8/131/33 7/132/33 4/130/33 3/129/33
f 5/135/34 6/136/34 1/134/34 2/133/34
f 7/132/33 12/138/33 10/137/33 4/130/33
f 11/140/34 5/135/34 2/133/34 9/139/34
f 12/138/33 16/142/33 14/141/33 10/137/33
f 15/144/34 11/140/34 9/139/34 13/143/34
f 16/142/33 20/146/33 18/145/33 14/141/33
f 19/148/34 15/144/34 13/143/34 17/147/34
f 20/146/33 24/150/33 22/149/33 18/145/33
f 23/152/34 19/148/34 17/147/34 21/151/34
f 24/150/33 28/154/33 26/153/33 22/149/33
f 27/156/34 23/152/34 21/151/34 25/155/34
f 28/154/33 32/158/33 30/157/33 26/153/33
f 31/160/34 27/156/34 25/155/34 29/159/34
f 32/158/33 36/162/33 34/161/33 30/157/33
f 35/164/34 31/160/34 29/159/34 33/163/34
f 36/162/33 40/166/33 38/165/33 34/161/33
f 39/168/34 35/164/34 33/163/34 37/167/34
f 40/166/33 44/170/33 42/169/33 38/165/33
f 43/172/34 39/168/34 37/167/34 41/171/34
f 44/170/33 48/174/33 46/173/33 42/169/33
f 47/176/34 43/172/34 41/171/34 45/175/34
f 48/174/33 52/178/33 50/177/33 46/173/33
f 51/180/34 47/176/34 45/175/34 49/179/34
f 52/178/33 56/182/33 54/181/33 50/177/33
f 55/184/34 51/180/34 49/179/34 53/183/34
f 56/182/33 60/186/33 58/185/33 54/181/33
f 59/188/34 55/184/34 53/183/34 57/187/34
f 60/186/33 64/190/33 62/189/33 58/185/33
f 63/192/34 59/188/34 57/187/34 61/191/34

